# xmcd CD database file generated by Grip 3.2.0
# 
# Track frame offsets:
#       150
#       13058
#       27564
#       46565
#       60950
#       70610
#       84680
#       102207
#       120107
#       133790
#       144956
#       158505
#       169013
#       177829
#       186882
#       201889
#       211608
#       229332
#       239835
# 
# Disc length: 3359 seconds
# 
# Revision: 1
# Processed by: cddbd v1.5.1PL2 Copyright (c) Steve Scherf et al.
# Submitted via: Grip 3.2.0
# 
DISCID=f40d1d13
DTITLE=Various Artist - 1. velký trampský zpěvník  Mex - Nel
DYEAR=2005
DGENRE=Country
TTITLE0=Mexická svatba
TTITLE1=Mexiko
TTITLE2=Modrá čepice
TTITLE3=Modrý dým
TTITLE4=Modrý kaňon
TTITLE5=Moře
TTITLE6=Moře hučí
TTITLE7=Můj koníčku
TTITLE8=Můj rodný dům
TTITLE9=My jsme věčně žízniví
TTITLE10=Na cestě
TTITLE11=Na čundr se mnou do Pyšel
TTITLE12=Na osadě hráli
TTITLE13=Na palubu námořníci
TTITLE14=Nad úvozem
TTITLE15=Namořník má svou holku rád
TTITLE16=Nebeští jezdci
TTITLE17=Nelly Bly
TTITLE18=Nelly Gray
EXTD=Vložila Agina
EXTT0=
EXTT1=
EXTT2=
EXTT3=
EXTT4=
EXTT5=
EXTT6=
EXTT7=
EXTT8=
EXTT9=
EXTT10=
EXTT11=
EXTT12=
EXTT13=
EXTT14=
EXTT15=
EXTT16=
EXTT17=
EXTT18=
PLAYORDER=
